<?xml version="1.0" encoding="UTF-8" standalone="no"?><!DOCTYPE svg PUBLIC "-//W3C//DTD SVG 1.1//EN" "http://www.w3.org/Graphics/SVG/1.1/DTD/svg11.dtd"><svg width="100%" height="100%" viewBox="0 0 162 35" version="1.1" xmlns="http://www.w3.org/2000/svg" xmlns:xlink="http://www.w3.org/1999/xlink" xml:space="preserve" xmlns:serif="http://www.serif.com/" style="fill-rule:evenodd;clip-rule:evenodd;stroke-linejoin:round;stroke-miterlimit:2;"><g><path d="M20.521,4.885c2.54,5.583 4.381,9.93 5.705,13.746l0.513,0l0,-14.176c0,-1.231 -0.323,-2.123 -0.967,-2.676c-0.646,-0.551 -1.687,-0.829 -3.125,-0.829l-4.993,0l-0.328,0c1.065,0.405 2.139,1.613 3.195,3.935Z" style="fill:#fff;fill-rule:nonzero;"/><path d="M15.67,0.95l-4.193,0c-1.436,0 -2.481,0.278 -3.125,0.829c-0.645,0.553 -0.968,1.445 -0.968,2.676l0,11.703c1.835,-5.883 4.927,-14.006 8.286,-15.208Z" style="fill:#fff;fill-rule:nonzero;"/><path d="M19.044,13.899c-2.704,-9.893 -5.681,-0.338 -8.799,8.063c-1.372,3.025 -2.891,5.647 -4.67,6.775c-2.337,1.474 -4.346,-2.477 -5.575,-5.849c0.249,4.06 1.252,14.307 4.901,11.69c2.622,-1.878 5.136,-8.51 6.79,-13.759c2.206,-5.455 4.191,-9.432 6.319,-2.199l2.274,-0.046c-0.535,-2.168 -0.569,-2.216 -1.24,-4.675Z" style="fill:#fff;fill-rule:nonzero;"/><path d="M66.459,4.026l-9.181,0l0,4.677l9.181,0c0.709,0 1.192,-0.102 1.453,-0.308c0.259,-0.207 0.39,-0.572 0.39,-1.095l0,-1.888c0,-0.513 -0.131,-0.872 -0.39,-1.076c-0.261,-0.207 -0.744,-0.31 -1.453,-0.31Zm-13.206,14.54l0,-17.586l15.014,0c1.402,0 2.416,0.269 3.046,0.808c0.626,0.537 0.941,1.406 0.941,2.605l0,3.942c0,1.181 -0.315,2.039 -0.941,2.575c-0.63,0.536 -1.644,0.802 -3.046,0.802l-10.989,0l0,6.854l-4.025,0Z" style="fill:#fff;fill-rule:nonzero;"/><path d="M87.215,4.026l-9.18,0l0,4.677l9.18,0c0.708,0 1.193,-0.102 1.454,-0.308c0.261,-0.207 0.388,-0.572 0.388,-1.095l0,-1.888c0,-0.513 -0.127,-0.872 -0.388,-1.076c-0.261,-0.207 -0.746,-0.31 -1.454,-0.31Zm-13.205,14.54l0,-17.586l15.015,0c1.402,0 2.417,0.269 3.045,0.808c0.627,0.537 0.942,1.406 0.942,2.605l0,3.942c0,1.181 -0.315,2.039 -0.942,2.575c-0.628,0.536 -1.643,0.802 -3.045,0.802l-10.99,0l0,6.854l-4.025,0Z" style="fill:#fff;fill-rule:nonzero;"/><rect x="115.667" y="0.98" width="4.1" height="17.586" style="fill:#fff;fill-rule:nonzero;"/><path d="M125.31,15.266l11.98,0l0,-11.131l-11.98,0l0,11.131Zm-3.639,-10.117c0,-1.601 0.267,-2.696 0.799,-3.284c0.531,-0.59 1.558,-0.885 3.076,-0.885l11.494,0c1.511,0 2.532,0.295 3.063,0.885c0.529,0.588 0.793,1.683 0.793,3.284l0,9.268c0,1.605 -0.264,2.697 -0.793,3.279c-0.531,0.581 -1.552,0.87 -3.063,0.87l-11.494,0c-1.518,0 -2.545,-0.289 -3.076,-0.87c-0.532,-0.582 -0.799,-1.674 -0.799,-3.279l0,-9.268Z" style="fill:#fff;fill-rule:nonzero;"/><path d="M160.51,1.866c-0.629,-0.539 -1.644,-0.808 -3.044,-0.808l-4.861,0l-1.155,0l-4.862,0c-1.4,0 -2.416,0.269 -3.045,0.808c-0.627,0.539 -0.94,1.407 -0.94,2.606l0,14.21l3.952,0l0,-13.192c0,-0.511 0.13,-0.87 0.389,-1.076c0.262,-0.207 0.743,-0.31 1.452,-0.31l7.262,0c0.707,0 1.192,0.103 1.45,0.31c0.26,0.206 0.392,0.565 0.392,1.076l0,13.192l3.951,0l0,-14.21c0,-1.199 -0.312,-2.067 -0.941,-2.606Z" style="fill:#fff;fill-rule:nonzero;"/><path d="M50.544,1.839c-0.629,-0.539 -1.643,-0.807 -3.043,-0.807l-4.863,0l-1.153,0l-4.864,0c-1.399,0 -2.414,0.268 -3.043,0.807c-0.629,0.539 -0.942,1.406 -0.942,2.606l0,14.21l3.953,0l0,-13.191c0,-0.513 0.129,-0.871 0.391,-1.077c0.258,-0.208 0.741,-0.31 1.451,-0.31l7.259,0c0.71,0 1.193,0.102 1.452,0.31c0.261,0.206 0.392,0.564 0.392,1.077l0,13.191l3.953,0l0,-14.21c0,-1.2 -0.315,-2.067 -0.943,-2.606Z" style="fill:#fff;fill-rule:nonzero;"/><rect x="39.81" y="8.795" width="10.321" height="3.014" style="fill:#fff;fill-rule:nonzero;"/><path d="M106.291,4.203l0,14.431l-4.098,0l0,-14.431l-7.533,0l0,-3.155l19.2,0l0,3.155l-7.569,0Z" style="fill:#fff;fill-rule:nonzero;"/></g></svg>